<svg id="Layer_1" data-name="Layer 1" xmlns="http://www.w3.org/2000/svg" viewBox="0 0 1748.01 553.99"><defs><style>.cls-1,.cls-2{fill:#4ac2d2;}.cls-1{opacity:0.15;}.cls-1,.cls-4{isolation:isolate;}.cls-3{fill:#fff;}</style></defs><g id="For_Black_Background" data-name="For Black Background"><ellipse id="Shadow" class="cls-1" cx="271.86" cy="465.8" rx="187.52" ry="48.51"/><path id="Right-Arm" class="cls-2" d="M129.35,307.17S27,347.77,19.46,319.3c0,0-11.72-45.22,73.69-121.42L125,184.49l8.37,103Z"/><path id="Left-Arm" class="cls-2" d="M399.67,310.91S498,360.47,508,332.78c0,0,15.71-44-62.58-127.5L415,189.11,397.44,291Z"/><circle id="Circle" class="cls-2" cx="272.48" cy="256.06" r="196.35"/><g id="Face"><path id="Mouth" class="cls-3" d="M275.76,307.31a16.81,16.81,0,0,1,.73-3.84c3.08-9.56,16.14-5.27,23.36-4.05a78.62,78.62,0,0,0,24.59.39c6.94-1,16.35-6.41,23-2,5.33,3.51,6.67,12.07,3.18,17.26-4.83,7.15-16.07,7-23.72,7.65a176.54,176.54,0,0,1-40.31-1.35C279.29,320.26,275.32,314,275.76,307.31Z"/><path id="Eye-1" class="cls-3" d="M268.86,176.5h0a22.31,22.31,0,0,1,22.31,22.31v36.92A22.31,22.31,0,0,1,268.86,258h0a22.31,22.31,0,0,1-22.31-22.31V198.81A22.31,22.31,0,0,1,268.86,176.5Z"/><path id="Eye-2" class="cls-3" d="M352.28,176.5h0a22.31,22.31,0,0,1,22.31,22.31v36.92A22.31,22.31,0,0,1,352.28,258h0A22.31,22.31,0,0,1,330,235.73V198.81A22.31,22.31,0,0,1,352.28,176.5Z"/></g><g id="Pogi_Text" data-name="Pogi Text" class="cls-4"><g class="cls-4"><path d="M955.24,203.06c0,70.7-45.41,119.31-119.8,119.31H744.11v107h-97V85.71h188.3C909.83,85.71,955.24,134.32,955.24,203.06Zm-141.16,49.1c27.5,0,44.19-16.45,44.19-47.38s-16.69-47.14-44.19-47.14h-70v94.52Z"/></g><g class="cls-4"><path d="M976.37,294.39c0-91.08,57.94-139.45,145.33-139.45,86.42,0,144.6,48.37,144.6,139.45,0,91.32-57.93,139.44-144.6,139.44C1034.31,433.83,976.37,385.47,976.37,294.39Zm145.33,73.16c33.15,0,57-25.29,57-73.16-.25-47.63-23.81-73.16-57-73.16-33.87,0-57.69,25.53-57.69,73.16C1064,342.26,1087.83,367.55,1121.7,367.55Z"/></g><g class="cls-4"><path d="M1583.73,159.36V395.29c0,92.06-64.07,135-142.88,135-74.14,0-131.83-41.24-139.44-110.23h87.64c5.9,30.93,25,45.17,51.8,45.17,33.64,0,55.24-22.58,55.24-71.68V366.81c-17.43,27-44.92,39.52-81.75,39.52-69.72,0-121-49.59-121-122.5,0-76.1,50.33-128.64,120-128.64,36.33,0,64.56,12.77,82.73,40.75V159.36ZM1438.15,342.5c33.88,0,56-25,56-58.67,0-35.11-22.1-60.39-56-60.39-35.1,0-57.2,24.06-57.2,59.9C1381,318.2,1403.05,342.5,1438.15,342.5Z"/><path d="M1674.08,42.5c30.93.25,51.31,19.65,51.31,43.46,0,24.06-20.38,43.7-51.31,43.7-31.18,0-51.56-19.64-51.56-43.7C1622.52,62.15,1642.9,42.5,1674.08,42.5Zm43.7,386.91h-87.64v-270h87.64Z"/></g></g></g></svg>